<svg xmlns="http://www.w3.org/2000/svg" viewBox="0 0 64 64" role="img" aria-label="Firefly">
  <defs>
    <radialGradient id="glow" cx="50%" cy="68%" r="42%">
      <stop offset="0%" stop-color="#fef08a"/>
      <stop offset="42%" stop-color="#facc15"/>
      <stop offset="100%" stop-color="#ca8a04" stop-opacity="0"/>
    </radialGradient>
    <linearGradient id="wing" x1="12" x2="52" y1="15" y2="38" gradientUnits="userSpaceOnUse">
      <stop offset="0%" stop-color="#bae6fd" stop-opacity=".78"/>
      <stop offset="100%" stop-color="#22d3ee" stop-opacity=".34"/>
    </linearGradient>
  </defs>
  <circle cx="32" cy="37" r="24" fill="#0f172a"/>
  <circle cx="32" cy="43" r="19" fill="url(#glow)"/>
  <ellipse cx="22" cy="28" rx="13" ry="7" fill="url(#wing)" transform="rotate(-28 22 28)"/>
  <ellipse cx="42" cy="28" rx="13" ry="7" fill="url(#wing)" transform="rotate(28 42 28)"/>
  <path fill="#111827" d="M32 16c6 0 10 5 10 12v10c0 8-4 14-10 14S22 46 22 38V28c0-7 4-12 10-12Z"/>
  <path fill="#facc15" d="M24 39c2 8 5 12 8 12s6-4 8-12c-5 2-11 2-16 0Z"/>
  <circle cx="32" cy="16" r="7" fill="#111827"/>
  <circle cx="29" cy="14" r="1.5" fill="#e0f2fe"/>
  <circle cx="35" cy="14" r="1.5" fill="#e0f2fe"/>
  <path fill="none" stroke="#e5e7eb" stroke-linecap="round" stroke-width="2.5" d="M28 10 22 4M36 10l6-6"/>
</svg>
